<?xml version="1.0" encoding="utf-8"?>
<!-- Generator: Adobe Illustrator 26.1.0, SVG Export Plug-In . SVG Version: 6.00 Build 0)  -->
<svg version="1.1" id="Layer_1" xmlns="http://www.w3.org/2000/svg" xmlns:xlink="http://www.w3.org/1999/xlink" x="0px" y="0px"
	 viewBox="0 0 64 64" style="enable-background:new 0 0 64 64;" xml:space="preserve">
<style type="text/css">
	.st0{fill:#FFFFFF;}
</style>
<path class="st0" d="M33.6,21.1h-7.7v8.4h7.7c2.4,0,4.3-1.9,4.3-4.2C37.9,23,36,21.1,33.6,21.1"/>
<path class="st0" d="M33.6,34.5h-7.7v8.4h7.7c2.4,0,4.3-1.9,4.3-4.2S36,34.5,33.6,34.5"/>
<path class="st0" d="M52,2H12C6.5,2,2,6.5,2,12v40c0,5.5,4.5,10,10,10h40c5.5,0,10-4.5,10-10V12C62,6.5,57.5,2,52,2z M43,38.7
	c0,5.1-4.2,9.2-9.4,9.2L21,48V16l12.6,0c5.2,0,9.4,4.1,9.4,9.2c0,2.6-1.1,5-3,6.7C41.9,33.7,43,36.1,43,38.7z"/>
</svg>
